<svg width="1400" height="1024" viewBox="0 0 1400 1024" fill="none" xmlns="http://www.w3.org/2000/svg">
<g opacity="0.05">
<rect y="129.702" width="340" height="60" rx="30" transform="rotate(-15 0 129.702)" fill="#006DD2"/>
<rect x="36.2349" y="264.932" width="60" height="60" rx="30" transform="rotate(-15 36.2349 264.932)" fill="#006DD2"/>
<rect x="72.4692" y="400.162" width="60" height="60" rx="30" transform="rotate(-15 72.4692 400.162)" fill="#006DD2"/>
<rect x="108.704" y="535.391" width="200" height="60" rx="30" transform="rotate(-15 108.704 535.391)" fill="#006DD2"/>
<rect x="171.464" y="228.697" width="60" height="60" rx="30" transform="rotate(-15 171.464 228.697)" fill="#006DD2"/>
<rect x="207.699" y="363.927" width="340" height="60" rx="30" transform="rotate(-15 207.699 363.927)" fill="#006DD2"/>
<rect x="306.694" y="192.463" width="60" height="60" rx="30" transform="rotate(-15 306.694 192.463)" fill="#006DD2"/>
<rect x="379.163" y="462.922" width="60" height="60" rx="30" transform="rotate(-15 379.163 462.922)" fill="#006DD2"/>
<rect x="405.689" y="20.9984" width="60" height="60" rx="30" transform="rotate(-15 405.689 20.9984)" fill="#006DD2"/>
<rect x="441.923" y="156.228" width="340" height="60" rx="30" transform="rotate(-15 441.923 156.228)" fill="#006DD2"/>
<rect x="514.393" y="426.687" width="200" height="60" rx="30" transform="rotate(-15 514.393 426.687)" fill="#006DD2"/>
<rect x="540.918" y="-15.2362" width="60" height="60" rx="30" transform="rotate(-15 540.918 -15.2362)" fill="#006DD2"/>
<rect x="613.388" y="255.223" width="60" height="60" rx="30" transform="rotate(-15 613.388 255.223)" fill="#006DD2"/>
<rect x="676.148" y="-51.4709" width="60" height="60" rx="30" transform="rotate(-15 676.148 -51.4709)" fill="#006DD2"/>
<rect x="748.617" y="218.988" width="60" height="60" rx="30" transform="rotate(-15 748.617 218.988)" fill="#006DD2"/>
<rect x="784.852" y="354.218" width="60" height="60" rx="30" transform="rotate(-15 784.852 354.218)" fill="#006DD2"/>
</g>
<g opacity="0.05">
<rect x="541.168" y="626.876" width="340" height="60" rx="30" transform="rotate(-15 541.168 626.876)" fill="#006DD2"/>
<rect x="577.403" y="762.105" width="60" height="60" rx="30" transform="rotate(-15 577.403 762.105)" fill="#006DD2"/>
<rect x="613.638" y="897.335" width="60" height="60" rx="30" transform="rotate(-15 613.638 897.335)" fill="#006DD2"/>
<rect x="649.873" y="1032.56" width="200" height="60" rx="30" transform="rotate(-15 649.873 1032.56)" fill="#006DD2"/>
<rect x="712.633" y="725.871" width="60" height="60" rx="30" transform="rotate(-15 712.633 725.871)" fill="#006DD2"/>
<rect x="748.867" y="861.1" width="340" height="60" rx="30" transform="rotate(-15 748.867 861.1)" fill="#006DD2"/>
<rect x="847.862" y="689.636" width="60" height="60" rx="30" transform="rotate(-15 847.862 689.636)" fill="#006DD2"/>
<rect x="920.332" y="960.095" width="60" height="60" rx="30" transform="rotate(-15 920.332 960.095)" fill="#006DD2"/>
<rect x="946.857" y="518.172" width="60" height="60" rx="30" transform="rotate(-15 946.857 518.172)" fill="#006DD2"/>
<rect x="983.092" y="653.401" width="340" height="60" rx="30" transform="rotate(-15 983.092 653.401)" fill="#006DD2"/>
<rect x="1055.56" y="923.861" width="200" height="60" rx="30" transform="rotate(-15 1055.56 923.861)" fill="#006DD2"/>
<rect x="1082.09" y="481.937" width="60" height="60" rx="30" transform="rotate(-15 1082.09 481.937)" fill="#006DD2"/>
<rect x="1154.56" y="752.396" width="60" height="60" rx="30" transform="rotate(-15 1154.56 752.396)" fill="#006DD2"/>
<rect x="1217.32" y="445.703" width="60" height="60" rx="30" transform="rotate(-15 1217.32 445.703)" fill="#006DD2"/>
<rect x="1289.79" y="716.162" width="60" height="60" rx="30" transform="rotate(-15 1289.79 716.162)" fill="#006DD2"/>
<rect x="1326.02" y="851.391" width="60" height="60" rx="30" transform="rotate(-15 1326.02 851.391)" fill="#006DD2"/>
</g>
</svg>
